<mxfile host="app.diagrams.net" modified="2023-06-18T05:48:19.846Z" agent="Mozilla/5.0 (Windows NT 10.0; Win64; x64) AppleWebKit/537.36 (KHTML, like Gecko) Chrome/114.0.0.0 Safari/537.36" version="21.4.0" etag="2ihp5kTLoDXt2m9703pd" type="github">
  <diagram name="Page-1" id="bsfZX9qir-kHV4ePOipt">
    <mxGraphModel>
      <root>
        <mxCell id="0" />
        <mxCell id="1" parent="0" />
      </root>
    </mxGraphModel>
  </diagram>
</mxfile>
